# xmcd
#
# Track frame offsets:
#	150
#	14822
#	29301
#	45289
#	59254
#	73776
#	89695
#	105126
#	117796
#	134567
#
# Disc length: 2028 seconds
#
# Revision: 1
# Processed by: cddbd v1.5.1PL2 Copyright (c) Steve Scherf et al.
# Submitted via: EasyCDDAExtractor 6.5.9.5
#
DISCID=8407ea0a
DTITLE=Ronnie Milsap - There's No Gettin' Over Me
DYEAR=1981
DGENRE=Country
TTITLE0=Everywhere I Turn, There's Your Memory
TTITLE1=There's No Gettin' Over Me
TTITLE2=It's All I Can Do
TTITLE3=Two Hearts Don't Always Make A Pair
TTITLE4=Jesus Is Your Ticket To Heaven
TTITLE5=I Wouldn't Have Missed It For The World
TTITLE6=Too Big For Words
TTITLE7=It Happens Every Time I Think of You
TTITLE8=It's Written All Over Your Face
TTITLE9=I Live My Whole Life at Night
EXTD=
EXTT0=
EXTT1=
EXTT2=
EXTT3=
EXTT4=
EXTT5=
EXTT6=
EXTT7=
EXTT8=
EXTT9=
PLAYORDER=
